<svg width="348" height="46" viewBox="0 0 348 46" fill="none" xmlns="http://www.w3.org/2000/svg">
<path d="M18.4924 29.768C16.3564 29.768 14.4124 29.684 12.6604 29.516C10.9084 29.324 9.36044 29.048 8.01644 28.688C6.69644 28.304 5.55644 27.848 4.59644 27.32C3.18044 26.504 2.12444 25.568 1.42844 24.512C0.732438 23.456 0.384438 22.292 0.384438 21.02C0.384438 19.724 0.696438 18.68 1.32044 17.888C1.96844 17.096 2.84444 16.7 3.94844 16.7C4.95644 16.7 5.71244 16.988 6.21644 17.564C6.72044 18.116 6.97244 18.968 6.97244 20.12C6.97244 20.792 6.72044 21.392 6.21644 21.92C5.73644 22.448 5.06444 22.88 4.20044 23.216C4.92044 24.464 6.49244 25.424 8.91644 26.096C11.3404 26.768 14.6164 27.104 18.7444 27.104C22.7524 27.104 26.7604 26.84 30.7684 26.312C34.8004 25.76 38.8204 24.968 42.8284 23.936C42.8764 24.272 42.9484 24.596 43.0444 24.908C43.1404 25.22 43.2604 25.52 43.4044 25.808C38.8444 27.056 34.4884 28.028 30.3364 28.724C26.2084 29.42 22.2604 29.768 18.4924 29.768ZM26.0884 40.892C24.7204 40.892 23.4724 40.64 22.3444 40.136C21.2164 39.632 20.3164 38.924 19.6444 38.012C18.9964 37.1 18.6724 36.044 18.6724 34.844C18.6724 33.932 18.9364 33.152 19.4644 32.504C20.0164 31.88 20.7724 31.568 21.7324 31.568C22.5244 31.568 23.1964 31.796 23.7484 32.252C24.3004 32.732 24.5764 33.392 24.5764 34.232C24.5764 34.976 24.4324 35.54 24.1444 35.924C23.8564 36.308 23.3404 36.596 22.5964 36.788C23.1244 37.82 24.2884 38.336 26.0884 38.336C27.4804 38.336 28.9084 38.108 30.3724 37.652C31.8364 37.22 33.3244 36.56 34.8364 35.672C36.3484 34.784 37.9324 33.668 39.5884 32.324C41.2684 31.004 43.0204 29.432 44.8444 27.608C45.3004 28.064 45.8044 28.4 46.3564 28.616C44.5564 30.68 42.7924 32.48 41.0644 34.016C39.3604 35.552 37.6684 36.824 35.9884 37.832C34.3324 38.84 32.6764 39.596 31.0204 40.1C29.3644 40.628 27.7204 40.892 26.0884 40.892ZM42.4324 45.392C41.1604 45.392 40.0924 45.044 39.2284 44.348C38.3644 43.676 37.9324 42.776 37.9324 41.648C37.9324 40.832 38.2084 40.196 38.7604 39.74C39.3124 39.284 39.9244 39.056 40.5964 39.056C41.3884 39.056 42.0124 39.272 42.4684 39.704C42.9484 40.16 43.1884 40.82 43.1884 41.684C43.1884 41.876 43.1644 42.08 43.1164 42.296C43.0684 42.512 43.0084 42.752 42.9364 43.016C44.0164 42.968 44.9164 42.572 45.6364 41.828C46.3564 41.108 46.9204 40.16 47.3284 38.984C47.7364 37.808 48.0244 36.5 48.1924 35.06C48.3844 33.62 48.4804 32.18 48.4804 30.74V29.084C48.6004 29.108 48.7324 29.132 48.8764 29.156C49.0444 29.156 49.2004 29.156 49.3444 29.156C49.7284 29.156 50.1484 29.12 50.6044 29.048C50.6284 29.408 50.6404 29.78 50.6404 30.164C50.6644 30.524 50.6764 30.908 50.6764 31.316C50.6764 33.284 50.5204 35.156 50.2084 36.932C49.8964 38.708 49.3684 40.256 48.6244 41.576C47.9764 42.752 47.1364 43.676 46.1044 44.348C45.0964 45.044 43.8724 45.392 42.4324 45.392ZM42.7924 21.812C40.5364 21.572 38.2684 21.26 35.9884 20.876C33.7084 20.468 31.5364 19.952 29.4724 19.328C27.4084 18.68 25.5724 17.876 23.9644 16.916C22.3564 15.956 21.0844 14.816 20.1484 13.496C19.2124 12.152 18.7444 10.568 18.7444 8.744C18.7444 7.352 19.1164 6.2 19.8604 5.288C20.6284 4.376 21.6364 3.92 22.8844 3.92C23.7244 3.92 24.4084 4.172 24.9364 4.676C25.4884 5.156 25.7644 5.828 25.7644 6.692C25.7644 7.604 25.4404 8.3 24.7924 8.78C24.1684 9.26 23.2084 9.524 21.9124 9.572C22.4884 14.684 29.7004 18.092 43.5484 19.796C43.3804 20.108 43.2244 20.432 43.0804 20.768C42.9604 21.08 42.8644 21.428 42.7924 21.812ZM48.9124 25.556C48.1924 25.556 47.5684 25.304 47.0404 24.8C46.5364 24.296 46.2844 23.672 46.2844 22.928C46.2844 22.16 46.5604 21.524 47.1124 21.02C47.6644 20.516 48.2644 20.264 48.9124 20.264C49.6324 20.264 50.2564 20.516 50.7844 21.02C51.3124 21.524 51.5764 22.16 51.5764 22.928C51.5764 23.744 51.3004 24.392 50.7484 24.872C50.2204 25.328 49.6084 25.556 48.9124 25.556ZM45.0964 17.996C43.7524 17.276 42.5044 16.52 41.3524 15.728C40.2004 14.936 39.1924 14.096 38.3284 13.208C37.4644 12.296 36.7924 11.312 36.3124 10.256C35.8324 9.2 35.5924 8.048 35.5924 6.8C35.5924 5.192 35.9524 3.872 36.6724 2.84C37.4164 1.784 38.4604 1.256 39.8044 1.256C40.7644 1.256 41.4604 1.496 41.8924 1.976C42.3244 2.456 42.5404 2.984 42.5404 3.56C42.5404 4.232 42.3244 4.772 41.8924 5.18C41.4604 5.588 40.8964 5.792 40.2004 5.792C39.9124 5.792 39.6124 5.744 39.3004 5.648C39.0124 5.528 38.7124 5.348 38.4004 5.108C38.3284 5.444 38.2684 5.768 38.2204 6.08C38.1724 6.392 38.1484 6.692 38.1484 6.98C38.1484 8.324 38.5444 9.572 39.3364 10.724C40.1524 11.852 41.2324 12.932 42.5764 13.964C43.9204 14.972 45.4084 15.98 47.0404 16.988C46.6804 17.084 46.3324 17.216 45.9964 17.384C45.6844 17.552 45.3844 17.756 45.0964 17.996ZM343.465 29.084C342.457 29.084 341.701 28.808 341.197 28.256C340.693 27.68 340.441 26.816 340.441 25.664C340.441 25.04 340.681 24.452 341.161 23.9C341.665 23.348 342.361 22.904 343.249 22.568C342.505 21.296 340.921 20.336 338.497 19.688C336.073 19.016 332.797 18.68 328.669 18.68C324.661 18.68 320.641 18.944 316.609 19.472C312.601 20 308.593 20.792 304.585 21.848C304.513 21.2 304.333 20.588 304.045 20.012C308.581 18.74 312.925 17.756 317.077 17.06C321.229 16.364 325.189 16.016 328.957 16.016C332.173 16.016 334.933 16.22 337.237 16.628C339.541 17.036 341.401 17.648 342.817 18.464C344.233 19.28 345.289 20.216 345.985 21.272C346.705 22.328 347.065 23.492 347.065 24.764C347.065 26.012 346.765 27.044 346.165 27.86C345.565 28.676 344.665 29.084 343.465 29.084ZM307.609 44.528C306.649 44.528 305.953 44.288 305.521 43.808C305.113 43.328 304.909 42.74 304.909 42.044C304.909 41.396 305.125 40.892 305.557 40.532C306.013 40.172 306.553 39.992 307.177 39.992C307.825 40.016 308.437 40.244 309.013 40.676C309.301 39.284 309.277 38.036 308.941 36.932C308.605 35.852 308.017 34.856 307.177 33.944C306.361 33.032 305.365 32.168 304.189 31.352C303.013 30.512 301.741 29.672 300.373 28.832C300.733 28.712 301.069 28.568 301.381 28.4C301.717 28.232 302.029 28.028 302.317 27.788C303.661 28.508 304.909 29.276 306.061 30.092C307.213 30.884 308.221 31.724 309.085 32.612C309.973 33.524 310.657 34.496 311.137 35.528C311.617 36.584 311.857 37.736 311.857 38.984C311.857 40.616 311.485 41.948 310.741 42.98C309.997 44.012 308.953 44.528 307.609 44.528ZM298.501 25.52C297.781 25.52 297.157 25.268 296.629 24.764C296.125 24.236 295.873 23.6 295.873 22.856C295.873 22.112 296.125 21.488 296.629 20.984C297.133 20.48 297.757 20.228 298.501 20.228C299.245 20.228 299.869 20.48 300.373 20.984C300.877 21.464 301.129 22.088 301.129 22.856C301.129 23.648 300.865 24.296 300.337 24.8C299.809 25.28 299.197 25.52 298.501 25.52ZM324.565 41.864C323.677 41.864 322.969 41.612 322.441 41.108C321.913 40.604 321.649 39.932 321.649 39.092C321.649 38.18 321.973 37.484 322.621 37.004C323.269 36.524 324.229 36.26 325.501 36.212C324.925 31.076 317.713 27.668 303.865 25.988C304.057 25.676 304.213 25.364 304.333 25.052C304.453 24.716 304.549 24.356 304.621 23.972C306.901 24.236 309.181 24.572 311.461 24.98C313.765 25.364 315.937 25.88 317.977 26.528C320.041 27.152 321.877 27.944 323.485 28.904C325.093 29.84 326.353 30.98 327.265 32.324C328.201 33.668 328.669 35.24 328.669 37.04C328.669 38.432 328.285 39.584 327.517 40.496C326.773 41.408 325.789 41.864 324.565 41.864ZM296.845 16.736C296.821 16.376 296.797 16.004 296.773 15.62C296.773 15.236 296.773 14.852 296.773 14.468C296.773 12.26 296.941 10.292 297.277 8.564C297.637 6.836 298.165 5.36 298.861 4.136C299.557 2.888 300.421 1.952 301.453 1.328C302.485 0.703999 303.661 0.391999 304.981 0.391999C306.421 0.391999 307.525 0.763999 308.293 1.508C309.085 2.228 309.481 3.104 309.481 4.136C309.481 4.952 309.205 5.588 308.653 6.044C308.125 6.5 307.513 6.728 306.817 6.728C306.073 6.728 305.461 6.5 304.981 6.044C304.501 5.588 304.261 4.952 304.261 4.136C304.261 3.92 304.273 3.704 304.297 3.488C304.345 3.248 304.405 3.008 304.477 2.768C303.613 2.792 302.869 3.056 302.245 3.56C301.621 4.04 301.093 4.688 300.661 5.504C300.253 6.32 299.917 7.256 299.653 8.312C299.389 9.344 299.197 10.436 299.077 11.588C298.981 12.74 298.933 13.892 298.933 15.044C298.933 15.308 298.933 15.584 298.933 15.872C298.933 16.16 298.945 16.436 298.969 16.7C298.825 16.676 298.681 16.664 298.537 16.664C298.393 16.64 298.237 16.628 298.069 16.628C297.685 16.628 297.277 16.664 296.845 16.736ZM302.605 18.176C302.365 17.96 302.113 17.768 301.849 17.6C301.609 17.408 301.357 17.264 301.093 17.168C303.109 14.84 305.197 12.752 307.357 10.904C309.517 9.056 311.761 7.604 314.089 6.548C316.417 5.468 318.841 4.928 321.361 4.928C322.777 4.928 324.037 5.18 325.141 5.684C326.245 6.188 327.121 6.896 327.769 7.808C328.417 8.696 328.741 9.752 328.741 10.976C328.741 11.984 328.441 12.776 327.841 13.352C327.241 13.928 326.521 14.216 325.681 14.216C324.937 14.216 324.277 13.988 323.701 13.532C323.125 13.076 322.837 12.428 322.837 11.588C322.837 10.868 322.993 10.304 323.305 9.896C323.617 9.464 324.121 9.164 324.817 8.996C324.265 7.964 323.113 7.448 321.361 7.448C319.177 7.448 317.005 7.952 314.845 8.96C312.685 9.944 310.573 11.252 308.509 12.884C306.469 14.516 304.501 16.28 302.605 18.176Z" fill="#9F96FF"/>
<path d="M53.9144 32L58.261 5.81818H69.5621C71.5053 5.81818 73.1417 6.2017 74.4712 6.96875C75.8008 7.73579 76.7553 8.81392 77.3349 10.2031C77.9144 11.5923 78.0508 13.2159 77.744 15.0739C77.4371 16.9659 76.7553 18.598 75.6985 19.9702C74.6502 21.3338 73.3121 22.3864 71.6843 23.1278C70.065 23.8608 68.2496 24.2273 66.2383 24.2273H59.4883L60.4087 18.7045H65.7269C66.5792 18.7045 67.3292 18.5597 67.9769 18.2699C68.6246 17.9716 69.1488 17.554 69.5494 17.017C69.9499 16.4716 70.2099 15.8239 70.3292 15.0739C70.4485 14.3239 70.3931 13.6847 70.163 13.1562C69.9414 12.6193 69.5579 12.2102 69.0124 11.929C68.4755 11.6392 67.7894 11.4943 66.9542 11.4943H64.4485L61.0224 32H53.9144ZM86.5778 32.358C84.4812 32.358 82.7425 31.9574 81.3619 31.1562C79.9812 30.3466 79.0096 29.1875 78.4471 27.679C77.8846 26.1619 77.7823 24.3466 78.1403 22.233C78.4812 20.2045 79.1843 18.4318 80.2496 16.9148C81.3235 15.3977 82.6744 14.2173 84.3022 13.3736C85.9386 12.5298 87.771 12.108 89.7994 12.108C91.2823 12.108 92.582 12.3381 93.6985 12.7983C94.8235 13.2585 95.7397 13.9276 96.4471 14.8054C97.1545 15.6832 97.6317 16.7443 97.8789 17.9886C98.1346 19.2244 98.1346 20.6222 97.8789 22.1818L97.6232 23.8182H80.0835L80.6971 19.9318H91.7425C91.8278 19.3693 91.7724 18.875 91.5764 18.4489C91.3889 18.0142 91.0863 17.6776 90.6687 17.4389C90.2596 17.1918 89.7653 17.0682 89.1857 17.0682C88.6062 17.0682 88.0607 17.1918 87.5494 17.4389C87.0465 17.6861 86.6161 18.0312 86.2582 18.4744C85.9087 18.9176 85.6744 19.4375 85.555 20.0341L84.788 24.125C84.6857 24.7557 84.7241 25.3182 84.9031 25.8125C85.082 26.3068 85.3931 26.6946 85.8363 26.9759C86.2795 27.2571 86.8505 27.3977 87.5494 27.3977C88.0266 27.3977 88.4783 27.3338 88.9045 27.206C89.3391 27.0696 89.7227 26.8736 90.055 26.6179C90.396 26.3537 90.6687 26.0341 90.8732 25.6591H97.3164C96.8562 27.0227 96.1275 28.2074 95.1303 29.2131C94.1417 30.2102 92.9229 30.9858 91.4741 31.5398C90.0337 32.0852 88.4016 32.358 86.5778 32.358ZM99.1222 32L102.395 12.3636H109.247L108.634 16.0966H108.838C109.426 14.7159 110.163 13.706 111.05 13.0668C111.936 12.4276 112.903 12.108 113.952 12.108C114.259 12.108 114.553 12.1335 114.834 12.1847C115.124 12.2273 115.409 12.2869 115.69 12.3636L114.668 18.3977C114.335 18.2699 113.922 18.1804 113.428 18.1293C112.933 18.0696 112.494 18.0398 112.111 18.0398C111.429 18.0398 110.79 18.1974 110.193 18.5128C109.605 18.8196 109.102 19.2543 108.685 19.8168C108.276 20.3707 108.003 21.0227 107.866 21.7727L106.179 32H99.1222ZM130.6 12.3636L129.73 17.4773H116.588L117.458 12.3636H130.6ZM116.665 32L120.04 11.8011C120.304 10.1818 120.811 8.83949 121.561 7.77415C122.32 6.70881 123.27 5.91193 124.412 5.38352C125.563 4.85511 126.85 4.59091 128.273 4.59091C129.176 4.59091 130.042 4.65909 130.868 4.79545C131.695 4.93182 132.296 5.05114 132.671 5.15341L130.83 10.2159C130.583 10.1392 130.297 10.0795 129.973 10.0369C129.65 9.98579 129.355 9.96023 129.091 9.96023C128.435 9.96023 127.966 10.1009 127.685 10.3821C127.412 10.6634 127.233 11.0341 127.148 11.4943L123.722 32H116.665ZM138.785 32.358C136.688 32.358 134.95 31.9574 133.569 31.1562C132.188 30.3466 131.217 29.1875 130.654 27.679C130.092 26.1619 129.989 24.3466 130.347 22.233C130.688 20.2045 131.391 18.4318 132.457 16.9148C133.531 15.3977 134.881 14.2173 136.509 13.3736C138.146 12.5298 139.978 12.108 142.006 12.108C143.489 12.108 144.789 12.3381 145.906 12.7983C147.031 13.2585 147.947 13.9276 148.654 14.8054C149.362 15.6832 149.839 16.7443 150.086 17.9886C150.342 19.2244 150.342 20.6222 150.086 22.1818L149.83 23.8182H132.29L132.904 19.9318H143.95C144.035 19.3693 143.979 18.875 143.783 18.4489C143.596 18.0142 143.293 17.6776 142.876 17.4389C142.467 17.1918 141.972 17.0682 141.393 17.0682C140.813 17.0682 140.268 17.1918 139.756 17.4389C139.254 17.6861 138.823 18.0312 138.465 18.4744C138.116 18.9176 137.881 19.4375 137.762 20.0341L136.995 24.125C136.893 24.7557 136.931 25.3182 137.11 25.8125C137.289 26.3068 137.6 26.6946 138.043 26.9759C138.487 27.2571 139.058 27.3977 139.756 27.3977C140.234 27.3977 140.685 27.3338 141.112 27.206C141.546 27.0696 141.93 26.8736 142.262 26.6179C142.603 26.3537 142.876 26.0341 143.08 25.6591H149.523C149.063 27.0227 148.335 28.2074 147.337 29.2131C146.349 30.2102 145.13 30.9858 143.681 31.5398C142.241 32.0852 140.609 32.358 138.785 32.358ZM160.738 32.358C158.608 32.358 156.852 31.9361 155.471 31.0923C154.091 30.2401 153.123 29.0554 152.569 27.5384C152.015 26.0128 151.909 24.2443 152.25 22.233C152.574 20.2216 153.264 18.4574 154.321 16.9403C155.386 15.4148 156.75 14.2301 158.412 13.3864C160.082 12.5341 161.983 12.108 164.113 12.108C166.039 12.108 167.646 12.4574 168.933 13.1562C170.228 13.8466 171.153 14.8267 171.707 16.0966C172.27 17.358 172.414 18.8409 172.142 20.5455H165.596C165.673 19.5227 165.507 18.7386 165.098 18.1932C164.697 17.6477 164.113 17.375 163.346 17.375C162.716 17.375 162.136 17.554 161.608 17.9119C161.088 18.2614 160.64 18.794 160.265 19.5099C159.899 20.2173 159.63 21.108 159.46 22.1818C159.289 23.2557 159.268 24.1506 159.396 24.8665C159.532 25.5739 159.797 26.1065 160.189 26.4645C160.589 26.8139 161.096 26.9886 161.71 26.9886C162.238 26.9886 162.724 26.8693 163.167 26.6307C163.619 26.3835 164.007 26.0256 164.331 25.5568C164.663 25.0795 164.914 24.5 165.085 23.8182H171.63C171.306 25.5568 170.654 27.0653 169.674 28.3438C168.694 29.6222 167.446 30.6108 165.929 31.3097C164.412 32.0085 162.681 32.358 160.738 32.358ZM188.144 12.3636L187.275 17.4773H174.337L175.207 12.3636H188.144ZM178.479 7.65909H185.536L182.545 25.6847C182.502 25.9574 182.511 26.1875 182.57 26.375C182.63 26.554 182.749 26.6903 182.928 26.7841C183.116 26.8693 183.363 26.9119 183.67 26.9119C183.874 26.9119 184.126 26.8864 184.424 26.8352C184.722 26.7756 184.948 26.733 185.102 26.7074L185.306 31.6676C184.948 31.7699 184.467 31.8849 183.862 32.0128C183.265 32.1491 182.57 32.2386 181.778 32.2812C180.124 32.358 178.778 32.1832 177.738 31.7571C176.707 31.331 175.991 30.6662 175.59 29.7628C175.198 28.8509 175.13 27.7131 175.386 26.3494L178.479 7.65909ZM194.821 32L199.167 5.81818H210.468C212.412 5.81818 214.048 6.2017 215.377 6.96875C216.707 7.73579 217.662 8.81392 218.241 10.2031C218.821 11.5923 218.957 13.2159 218.65 15.0739C218.343 16.9659 217.662 18.598 216.605 19.9702C215.556 21.3338 214.218 22.3864 212.591 23.1278C210.971 23.8608 209.156 24.2273 207.145 24.2273H200.395L201.315 18.7045H206.633C207.485 18.7045 208.235 18.5597 208.883 18.2699C209.531 17.9716 210.055 17.554 210.456 17.017C210.856 16.4716 211.116 15.8239 211.235 15.0739C211.355 14.3239 211.299 13.6847 211.069 13.1562C210.848 12.6193 210.464 12.2102 209.919 11.929C209.382 11.6392 208.696 11.4943 207.86 11.4943H205.355L201.929 32H194.821ZM218.548 32L221.821 12.3636H228.877L225.605 32H218.548ZM225.656 10.3182C224.701 10.3182 223.93 10.0028 223.342 9.37216C222.754 8.73295 222.537 7.97443 222.69 7.09659C222.843 6.2017 223.312 5.44318 224.096 4.82102C224.88 4.19034 225.75 3.875 226.704 3.875C227.667 3.875 228.434 4.19034 229.005 4.82102C229.576 5.44318 229.789 6.2017 229.645 7.09659C229.508 7.97443 229.048 8.73295 228.264 9.37216C227.488 10.0028 226.619 10.3182 225.656 10.3182ZM229.456 32L230.07 28.1136L240.348 17.8352L240.399 17.733H232.115L233.036 12.3636H249.655L248.99 16.6591L239.53 26.5284L239.479 26.6307H247.609L246.74 32H229.456ZM250.866 32L251.48 28.1136L261.758 17.8352L261.809 17.733H253.525L254.446 12.3636H271.065L270.4 16.6591L260.94 26.5284L260.889 26.6307H269.02L268.15 32H250.866ZM277.441 32.3068C276.197 32.3068 275.127 32.1023 274.232 31.6932C273.346 31.2756 272.698 30.6449 272.289 29.8011C271.888 28.9489 271.799 27.875 272.021 26.5795C272.2 25.5057 272.536 24.5895 273.031 23.831C273.525 23.0724 274.138 22.4503 274.871 21.9645C275.604 21.4787 276.427 21.108 277.339 20.8523C278.259 20.5881 279.231 20.4176 280.254 20.3409C281.362 20.2557 282.261 20.1491 282.951 20.0213C283.641 19.8935 284.157 19.7187 284.498 19.4972C284.839 19.2756 285.043 18.9773 285.112 18.6023V18.5511C285.188 18.0398 285.052 17.6477 284.702 17.375C284.362 17.1023 283.884 16.9659 283.271 16.9659C282.606 16.9659 282.031 17.1108 281.545 17.4006C281.067 17.6903 280.739 18.142 280.56 18.7557H274.066C274.339 17.5625 274.897 16.4631 275.741 15.4574C276.593 14.4432 277.722 13.6335 279.129 13.0284C280.543 12.4148 282.231 12.108 284.191 12.108C285.589 12.108 286.816 12.2741 287.873 12.6065C288.93 12.9304 289.803 13.3864 290.494 13.9744C291.192 14.554 291.683 15.2358 291.964 16.0199C292.254 16.7955 292.322 17.6392 292.168 18.5511L289.918 32H283.322L283.782 29.2386H283.629C283.117 29.9716 282.542 30.5639 281.903 31.0156C281.272 31.4673 280.582 31.7955 279.832 32C279.09 32.2045 278.293 32.3068 277.441 32.3068ZM280.509 27.858C281.038 27.858 281.558 27.7472 282.069 27.5256C282.58 27.304 283.019 26.9844 283.386 26.5668C283.752 26.1491 283.987 25.642 284.089 25.0455L284.344 23.4091C284.157 23.4858 283.948 23.5582 283.718 23.6264C283.496 23.6861 283.262 23.7457 283.015 23.8054C282.776 23.8651 282.521 23.9205 282.248 23.9716C281.984 24.0227 281.711 24.0739 281.43 24.125C280.867 24.2102 280.394 24.3509 280.011 24.5469C279.627 24.7344 279.329 24.9688 279.116 25.25C278.903 25.5227 278.771 25.8295 278.719 26.1705C278.643 26.7074 278.766 27.125 279.09 27.4233C279.423 27.7131 279.896 27.858 280.509 27.858Z" fill="white"/>
</svg>
