<svg width="348" height="46" viewBox="0 0 348 46" fill="none" xmlns="http://www.w3.org/2000/svg">
<path d="M18.9924 29.768C16.8564 29.768 14.9124 29.684 13.1604 29.516C11.4084 29.324 9.86044 29.048 8.51644 28.688C7.19644 28.304 6.05644 27.848 5.09644 27.32C3.68044 26.504 2.62444 25.568 1.92844 24.512C1.23244 23.456 0.884438 22.292 0.884438 21.02C0.884438 19.724 1.19644 18.68 1.82044 17.888C2.46844 17.096 3.34444 16.7 4.44844 16.7C5.45644 16.7 6.21244 16.988 6.71644 17.564C7.22044 18.116 7.47244 18.968 7.47244 20.12C7.47244 20.792 7.22044 21.392 6.71644 21.92C6.23644 22.448 5.56444 22.88 4.70044 23.216C5.42044 24.464 6.99244 25.424 9.41644 26.096C11.8404 26.768 15.1164 27.104 19.2444 27.104C23.2524 27.104 27.2604 26.84 31.2684 26.312C35.3004 25.76 39.3204 24.968 43.3284 23.936C43.3764 24.272 43.4484 24.596 43.5444 24.908C43.6404 25.22 43.7604 25.52 43.9044 25.808C39.3444 27.056 34.9884 28.028 30.8364 28.724C26.7084 29.42 22.7604 29.768 18.9924 29.768ZM26.5884 40.892C25.2204 40.892 23.9724 40.64 22.8444 40.136C21.7164 39.632 20.8164 38.924 20.1444 38.012C19.4964 37.1 19.1724 36.044 19.1724 34.844C19.1724 33.932 19.4364 33.152 19.9644 32.504C20.5164 31.88 21.2724 31.568 22.2324 31.568C23.0244 31.568 23.6964 31.796 24.2484 32.252C24.8004 32.732 25.0764 33.392 25.0764 34.232C25.0764 34.976 24.9324 35.54 24.6444 35.924C24.3564 36.308 23.8404 36.596 23.0964 36.788C23.6244 37.82 24.7884 38.336 26.5884 38.336C27.9804 38.336 29.4084 38.108 30.8724 37.652C32.3364 37.22 33.8244 36.56 35.3364 35.672C36.8484 34.784 38.4324 33.668 40.0884 32.324C41.7684 31.004 43.5204 29.432 45.3444 27.608C45.8004 28.064 46.3044 28.4 46.8564 28.616C45.0564 30.68 43.2924 32.48 41.5644 34.016C39.8604 35.552 38.1684 36.824 36.4884 37.832C34.8324 38.84 33.1764 39.596 31.5204 40.1C29.8644 40.628 28.2204 40.892 26.5884 40.892ZM42.9324 45.392C41.6604 45.392 40.5924 45.044 39.7284 44.348C38.8644 43.676 38.4324 42.776 38.4324 41.648C38.4324 40.832 38.7084 40.196 39.2604 39.74C39.8124 39.284 40.4244 39.056 41.0964 39.056C41.8884 39.056 42.5124 39.272 42.9684 39.704C43.4484 40.16 43.6884 40.82 43.6884 41.684C43.6884 41.876 43.6644 42.08 43.6164 42.296C43.5684 42.512 43.5084 42.752 43.4364 43.016C44.5164 42.968 45.4164 42.572 46.1364 41.828C46.8564 41.108 47.4204 40.16 47.8284 38.984C48.2364 37.808 48.5244 36.5 48.6924 35.06C48.8844 33.62 48.9804 32.18 48.9804 30.74V29.084C49.1004 29.108 49.2324 29.132 49.3764 29.156C49.5444 29.156 49.7004 29.156 49.8444 29.156C50.2284 29.156 50.6484 29.12 51.1044 29.048C51.1284 29.408 51.1404 29.78 51.1404 30.164C51.1644 30.524 51.1764 30.908 51.1764 31.316C51.1764 33.284 51.0204 35.156 50.7084 36.932C50.3964 38.708 49.8684 40.256 49.1244 41.576C48.4764 42.752 47.6364 43.676 46.6044 44.348C45.5964 45.044 44.3724 45.392 42.9324 45.392ZM43.2924 21.812C41.0364 21.572 38.7684 21.26 36.4884 20.876C34.2084 20.468 32.0364 19.952 29.9724 19.328C27.9084 18.68 26.0724 17.876 24.4644 16.916C22.8564 15.956 21.5844 14.816 20.6484 13.496C19.7124 12.152 19.2444 10.568 19.2444 8.744C19.2444 7.352 19.6164 6.2 20.3604 5.288C21.1284 4.376 22.1364 3.92 23.3844 3.92C24.2244 3.92 24.9084 4.172 25.4364 4.676C25.9884 5.156 26.2644 5.828 26.2644 6.692C26.2644 7.604 25.9404 8.3 25.2924 8.78C24.6684 9.26 23.7084 9.524 22.4124 9.572C22.9884 14.684 30.2004 18.092 44.0484 19.796C43.8804 20.108 43.7244 20.432 43.5804 20.768C43.4604 21.08 43.3644 21.428 43.2924 21.812ZM49.4124 25.556C48.6924 25.556 48.0684 25.304 47.5404 24.8C47.0364 24.296 46.7844 23.672 46.7844 22.928C46.7844 22.16 47.0604 21.524 47.6124 21.02C48.1644 20.516 48.7644 20.264 49.4124 20.264C50.1324 20.264 50.7564 20.516 51.2844 21.02C51.8124 21.524 52.0764 22.16 52.0764 22.928C52.0764 23.744 51.8004 24.392 51.2484 24.872C50.7204 25.328 50.1084 25.556 49.4124 25.556ZM45.5964 17.996C44.2524 17.276 43.0044 16.52 41.8524 15.728C40.7004 14.936 39.6924 14.096 38.8284 13.208C37.9644 12.296 37.2924 11.312 36.8124 10.256C36.3324 9.2 36.0924 8.048 36.0924 6.8C36.0924 5.192 36.4524 3.872 37.1724 2.84C37.9164 1.784 38.9604 1.256 40.3044 1.256C41.2644 1.256 41.9604 1.496 42.3924 1.976C42.8244 2.456 43.0404 2.984 43.0404 3.56C43.0404 4.232 42.8244 4.772 42.3924 5.18C41.9604 5.588 41.3964 5.792 40.7004 5.792C40.4124 5.792 40.1124 5.744 39.8004 5.648C39.5124 5.528 39.2124 5.348 38.9004 5.108C38.8284 5.444 38.7684 5.768 38.7204 6.08C38.6724 6.392 38.6484 6.692 38.6484 6.98C38.6484 8.324 39.0444 9.572 39.8364 10.724C40.6524 11.852 41.7324 12.932 43.0764 13.964C44.4204 14.972 45.9084 15.98 47.5404 16.988C47.1804 17.084 46.8324 17.216 46.4964 17.384C46.1844 17.552 45.8844 17.756 45.5964 17.996ZM343.965 29.084C342.957 29.084 342.201 28.808 341.697 28.256C341.193 27.68 340.941 26.816 340.941 25.664C340.941 25.04 341.181 24.452 341.661 23.9C342.165 23.348 342.861 22.904 343.749 22.568C343.005 21.296 341.421 20.336 338.997 19.688C336.573 19.016 333.297 18.68 329.169 18.68C325.161 18.68 321.141 18.944 317.109 19.472C313.101 20 309.093 20.792 305.085 21.848C305.013 21.2 304.833 20.588 304.545 20.012C309.081 18.74 313.425 17.756 317.577 17.06C321.729 16.364 325.689 16.016 329.457 16.016C332.673 16.016 335.433 16.22 337.737 16.628C340.041 17.036 341.901 17.648 343.317 18.464C344.733 19.28 345.789 20.216 346.485 21.272C347.205 22.328 347.565 23.492 347.565 24.764C347.565 26.012 347.265 27.044 346.665 27.86C346.065 28.676 345.165 29.084 343.965 29.084ZM308.109 44.528C307.149 44.528 306.453 44.288 306.021 43.808C305.613 43.328 305.409 42.74 305.409 42.044C305.409 41.396 305.625 40.892 306.057 40.532C306.513 40.172 307.053 39.992 307.677 39.992C308.325 40.016 308.937 40.244 309.513 40.676C309.801 39.284 309.777 38.036 309.441 36.932C309.105 35.852 308.517 34.856 307.677 33.944C306.861 33.032 305.865 32.168 304.689 31.352C303.513 30.512 302.241 29.672 300.873 28.832C301.233 28.712 301.569 28.568 301.881 28.4C302.217 28.232 302.529 28.028 302.817 27.788C304.161 28.508 305.409 29.276 306.561 30.092C307.713 30.884 308.721 31.724 309.585 32.612C310.473 33.524 311.157 34.496 311.637 35.528C312.117 36.584 312.357 37.736 312.357 38.984C312.357 40.616 311.985 41.948 311.241 42.98C310.497 44.012 309.453 44.528 308.109 44.528ZM299.001 25.52C298.281 25.52 297.657 25.268 297.129 24.764C296.625 24.236 296.373 23.6 296.373 22.856C296.373 22.112 296.625 21.488 297.129 20.984C297.633 20.48 298.257 20.228 299.001 20.228C299.745 20.228 300.369 20.48 300.873 20.984C301.377 21.464 301.629 22.088 301.629 22.856C301.629 23.648 301.365 24.296 300.837 24.8C300.309 25.28 299.697 25.52 299.001 25.52ZM325.065 41.864C324.177 41.864 323.469 41.612 322.941 41.108C322.413 40.604 322.149 39.932 322.149 39.092C322.149 38.18 322.473 37.484 323.121 37.004C323.769 36.524 324.729 36.26 326.001 36.212C325.425 31.076 318.213 27.668 304.365 25.988C304.557 25.676 304.713 25.364 304.833 25.052C304.953 24.716 305.049 24.356 305.121 23.972C307.401 24.236 309.681 24.572 311.961 24.98C314.265 25.364 316.437 25.88 318.477 26.528C320.541 27.152 322.377 27.944 323.985 28.904C325.593 29.84 326.853 30.98 327.765 32.324C328.701 33.668 329.169 35.24 329.169 37.04C329.169 38.432 328.785 39.584 328.017 40.496C327.273 41.408 326.289 41.864 325.065 41.864ZM297.345 16.736C297.321 16.376 297.297 16.004 297.273 15.62C297.273 15.236 297.273 14.852 297.273 14.468C297.273 12.26 297.441 10.292 297.777 8.564C298.137 6.836 298.665 5.36 299.361 4.136C300.057 2.888 300.921 1.952 301.953 1.328C302.985 0.703999 304.161 0.391999 305.481 0.391999C306.921 0.391999 308.025 0.763999 308.793 1.508C309.585 2.228 309.981 3.104 309.981 4.136C309.981 4.952 309.705 5.588 309.153 6.044C308.625 6.5 308.013 6.728 307.317 6.728C306.573 6.728 305.961 6.5 305.481 6.044C305.001 5.588 304.761 4.952 304.761 4.136C304.761 3.92 304.773 3.704 304.797 3.488C304.845 3.248 304.905 3.008 304.977 2.768C304.113 2.792 303.369 3.056 302.745 3.56C302.121 4.04 301.593 4.688 301.161 5.504C300.753 6.32 300.417 7.256 300.153 8.312C299.889 9.344 299.697 10.436 299.577 11.588C299.481 12.74 299.433 13.892 299.433 15.044C299.433 15.308 299.433 15.584 299.433 15.872C299.433 16.16 299.445 16.436 299.469 16.7C299.325 16.676 299.181 16.664 299.037 16.664C298.893 16.64 298.737 16.628 298.569 16.628C298.185 16.628 297.777 16.664 297.345 16.736ZM303.105 18.176C302.865 17.96 302.613 17.768 302.349 17.6C302.109 17.408 301.857 17.264 301.593 17.168C303.609 14.84 305.697 12.752 307.857 10.904C310.017 9.056 312.261 7.604 314.589 6.548C316.917 5.468 319.341 4.928 321.861 4.928C323.277 4.928 324.537 5.18 325.641 5.684C326.745 6.188 327.621 6.896 328.269 7.808C328.917 8.696 329.241 9.752 329.241 10.976C329.241 11.984 328.941 12.776 328.341 13.352C327.741 13.928 327.021 14.216 326.181 14.216C325.437 14.216 324.777 13.988 324.201 13.532C323.625 13.076 323.337 12.428 323.337 11.588C323.337 10.868 323.493 10.304 323.805 9.896C324.117 9.464 324.621 9.164 325.317 8.996C324.765 7.964 323.613 7.448 321.861 7.448C319.677 7.448 317.505 7.952 315.345 8.96C313.185 9.944 311.073 11.252 309.009 12.884C306.969 14.516 305.001 16.28 303.105 18.176Z" fill="#9F96FF"/>
<path d="M54.4144 32L58.761 5.81818H70.0621C72.0053 5.81818 73.6417 6.2017 74.9712 6.96875C76.3008 7.73579 77.2553 8.81392 77.8349 10.2031C78.4144 11.5923 78.5508 13.2159 78.244 15.0739C77.9371 16.9659 77.2553 18.598 76.1985 19.9702C75.1502 21.3338 73.8121 22.3864 72.1843 23.1278C70.565 23.8608 68.7496 24.2273 66.7383 24.2273H59.9883L60.9087 18.7045H66.2269C67.0792 18.7045 67.8292 18.5597 68.4769 18.2699C69.1246 17.9716 69.6488 17.554 70.0494 17.017C70.4499 16.4716 70.7099 15.8239 70.8292 15.0739C70.9485 14.3239 70.8931 13.6847 70.663 13.1562C70.4414 12.6193 70.0579 12.2102 69.5124 11.929C68.9755 11.6392 68.2894 11.4943 67.4542 11.4943H64.9485L61.5224 32H54.4144ZM87.0778 32.358C84.9812 32.358 83.2425 31.9574 81.8619 31.1562C80.4812 30.3466 79.5096 29.1875 78.9471 27.679C78.3846 26.1619 78.2823 24.3466 78.6403 22.233C78.9812 20.2045 79.6843 18.4318 80.7496 16.9148C81.8235 15.3977 83.1744 14.2173 84.8022 13.3736C86.4386 12.5298 88.271 12.108 90.2994 12.108C91.7823 12.108 93.082 12.3381 94.1985 12.7983C95.3235 13.2585 96.2397 13.9276 96.9471 14.8054C97.6545 15.6832 98.1317 16.7443 98.3789 17.9886C98.6346 19.2244 98.6346 20.6222 98.3789 22.1818L98.1232 23.8182H80.5835L81.1971 19.9318H92.2425C92.3278 19.3693 92.2724 18.875 92.0764 18.4489C91.8889 18.0142 91.5863 17.6776 91.1687 17.4389C90.7596 17.1918 90.2653 17.0682 89.6857 17.0682C89.1062 17.0682 88.5607 17.1918 88.0494 17.4389C87.5465 17.6861 87.1161 18.0312 86.7582 18.4744C86.4087 18.9176 86.1744 19.4375 86.055 20.0341L85.288 24.125C85.1857 24.7557 85.2241 25.3182 85.4031 25.8125C85.582 26.3068 85.8931 26.6946 86.3363 26.9759C86.7795 27.2571 87.3505 27.3977 88.0494 27.3977C88.5266 27.3977 88.9783 27.3338 89.4045 27.206C89.8391 27.0696 90.2227 26.8736 90.555 26.6179C90.896 26.3537 91.1687 26.0341 91.3732 25.6591H97.8164C97.3562 27.0227 96.6275 28.2074 95.6303 29.2131C94.6417 30.2102 93.4229 30.9858 91.9741 31.5398C90.5337 32.0852 88.9016 32.358 87.0778 32.358ZM99.6222 32L102.895 12.3636H109.747L109.134 16.0966H109.338C109.926 14.7159 110.663 13.706 111.55 13.0668C112.436 12.4276 113.403 12.108 114.452 12.108C114.759 12.108 115.053 12.1335 115.334 12.1847C115.624 12.2273 115.909 12.2869 116.19 12.3636L115.168 18.3977C114.835 18.2699 114.422 18.1804 113.928 18.1293C113.433 18.0696 112.994 18.0398 112.611 18.0398C111.929 18.0398 111.29 18.1974 110.693 18.5128C110.105 18.8196 109.602 19.2543 109.185 19.8168C108.776 20.3707 108.503 21.0227 108.366 21.7727L106.679 32H99.6222ZM131.1 12.3636L130.23 17.4773H117.088L117.958 12.3636H131.1ZM117.165 32L120.54 11.8011C120.804 10.1818 121.311 8.83949 122.061 7.77415C122.82 6.70881 123.77 5.91193 124.912 5.38352C126.063 4.85511 127.35 4.59091 128.773 4.59091C129.676 4.59091 130.542 4.65909 131.368 4.79545C132.195 4.93182 132.796 5.05114 133.171 5.15341L131.33 10.2159C131.083 10.1392 130.797 10.0795 130.473 10.0369C130.15 9.98579 129.855 9.96023 129.591 9.96023C128.935 9.96023 128.466 10.1009 128.185 10.3821C127.912 10.6634 127.733 11.0341 127.648 11.4943L124.222 32H117.165ZM139.285 32.358C137.188 32.358 135.45 31.9574 134.069 31.1562C132.688 30.3466 131.717 29.1875 131.154 27.679C130.592 26.1619 130.489 24.3466 130.847 22.233C131.188 20.2045 131.891 18.4318 132.957 16.9148C134.031 15.3977 135.381 14.2173 137.009 13.3736C138.646 12.5298 140.478 12.108 142.506 12.108C143.989 12.108 145.289 12.3381 146.406 12.7983C147.531 13.2585 148.447 13.9276 149.154 14.8054C149.862 15.6832 150.339 16.7443 150.586 17.9886C150.842 19.2244 150.842 20.6222 150.586 22.1818L150.33 23.8182H132.79L133.404 19.9318H144.45C144.535 19.3693 144.479 18.875 144.283 18.4489C144.096 18.0142 143.793 17.6776 143.376 17.4389C142.967 17.1918 142.472 17.0682 141.893 17.0682C141.313 17.0682 140.768 17.1918 140.256 17.4389C139.754 17.6861 139.323 18.0312 138.965 18.4744C138.616 18.9176 138.381 19.4375 138.262 20.0341L137.495 24.125C137.393 24.7557 137.431 25.3182 137.61 25.8125C137.789 26.3068 138.1 26.6946 138.543 26.9759C138.987 27.2571 139.558 27.3977 140.256 27.3977C140.734 27.3977 141.185 27.3338 141.612 27.206C142.046 27.0696 142.43 26.8736 142.762 26.6179C143.103 26.3537 143.376 26.0341 143.58 25.6591H150.023C149.563 27.0227 148.835 28.2074 147.837 29.2131C146.849 30.2102 145.63 30.9858 144.181 31.5398C142.741 32.0852 141.109 32.358 139.285 32.358ZM161.238 32.358C159.108 32.358 157.352 31.9361 155.971 31.0923C154.591 30.2401 153.623 29.0554 153.069 27.5384C152.515 26.0128 152.409 24.2443 152.75 22.233C153.074 20.2216 153.764 18.4574 154.821 16.9403C155.886 15.4148 157.25 14.2301 158.912 13.3864C160.582 12.5341 162.483 12.108 164.613 12.108C166.539 12.108 168.146 12.4574 169.433 13.1562C170.728 13.8466 171.653 14.8267 172.207 16.0966C172.77 17.358 172.914 18.8409 172.642 20.5455H166.096C166.173 19.5227 166.007 18.7386 165.598 18.1932C165.197 17.6477 164.613 17.375 163.846 17.375C163.216 17.375 162.636 17.554 162.108 17.9119C161.588 18.2614 161.14 18.794 160.765 19.5099C160.399 20.2173 160.13 21.108 159.96 22.1818C159.789 23.2557 159.768 24.1506 159.896 24.8665C160.032 25.5739 160.297 26.1065 160.689 26.4645C161.089 26.8139 161.596 26.9886 162.21 26.9886C162.738 26.9886 163.224 26.8693 163.667 26.6307C164.119 26.3835 164.507 26.0256 164.831 25.5568C165.163 25.0795 165.414 24.5 165.585 23.8182H172.13C171.806 25.5568 171.154 27.0653 170.174 28.3438C169.194 29.6222 167.946 30.6108 166.429 31.3097C164.912 32.0085 163.181 32.358 161.238 32.358ZM188.644 12.3636L187.775 17.4773H174.837L175.707 12.3636H188.644ZM178.979 7.65909H186.036L183.045 25.6847C183.002 25.9574 183.011 26.1875 183.07 26.375C183.13 26.554 183.249 26.6903 183.428 26.7841C183.616 26.8693 183.863 26.9119 184.17 26.9119C184.374 26.9119 184.626 26.8864 184.924 26.8352C185.222 26.7756 185.448 26.733 185.602 26.7074L185.806 31.6676C185.448 31.7699 184.967 31.8849 184.362 32.0128C183.765 32.1491 183.07 32.2386 182.278 32.2812C180.624 32.358 179.278 32.1832 178.238 31.7571C177.207 31.331 176.491 30.6662 176.09 29.7628C175.698 28.8509 175.63 27.7131 175.886 26.3494L178.979 7.65909ZM195.321 32L199.667 5.81818H210.968C212.912 5.81818 214.548 6.2017 215.877 6.96875C217.207 7.73579 218.162 8.81392 218.741 10.2031C219.321 11.5923 219.457 13.2159 219.15 15.0739C218.843 16.9659 218.162 18.598 217.105 19.9702C216.056 21.3338 214.718 22.3864 213.091 23.1278C211.471 23.8608 209.656 24.2273 207.645 24.2273H200.895L201.815 18.7045H207.133C207.985 18.7045 208.735 18.5597 209.383 18.2699C210.031 17.9716 210.555 17.554 210.956 17.017C211.356 16.4716 211.616 15.8239 211.735 15.0739C211.855 14.3239 211.799 13.6847 211.569 13.1562C211.348 12.6193 210.964 12.2102 210.419 11.929C209.882 11.6392 209.196 11.4943 208.36 11.4943H205.855L202.429 32H195.321ZM219.048 32L222.321 12.3636H229.377L226.105 32H219.048ZM226.156 10.3182C225.201 10.3182 224.43 10.0028 223.842 9.37216C223.254 8.73295 223.037 7.97443 223.19 7.09659C223.343 6.2017 223.812 5.44318 224.596 4.82102C225.38 4.19034 226.25 3.875 227.204 3.875C228.167 3.875 228.934 4.19034 229.505 4.82102C230.076 5.44318 230.289 6.2017 230.145 7.09659C230.008 7.97443 229.548 8.73295 228.764 9.37216C227.988 10.0028 227.119 10.3182 226.156 10.3182ZM229.956 32L230.57 28.1136L240.848 17.8352L240.899 17.733H232.615L233.536 12.3636H250.155L249.49 16.6591L240.03 26.5284L239.979 26.6307H248.109L247.24 32H229.956ZM251.366 32L251.98 28.1136L262.258 17.8352L262.309 17.733H254.025L254.946 12.3636H271.565L270.9 16.6591L261.44 26.5284L261.389 26.6307H269.52L268.65 32H251.366ZM277.941 32.3068C276.697 32.3068 275.627 32.1023 274.732 31.6932C273.846 31.2756 273.198 30.6449 272.789 29.8011C272.388 28.9489 272.299 27.875 272.521 26.5795C272.7 25.5057 273.036 24.5895 273.531 23.831C274.025 23.0724 274.638 22.4503 275.371 21.9645C276.104 21.4787 276.927 21.108 277.839 20.8523C278.759 20.5881 279.731 20.4176 280.754 20.3409C281.862 20.2557 282.761 20.1491 283.451 20.0213C284.141 19.8935 284.657 19.7187 284.998 19.4972C285.339 19.2756 285.543 18.9773 285.612 18.6023V18.5511C285.688 18.0398 285.552 17.6477 285.202 17.375C284.862 17.1023 284.384 16.9659 283.771 16.9659C283.106 16.9659 282.531 17.1108 282.045 17.4006C281.567 17.6903 281.239 18.142 281.06 18.7557H274.566C274.839 17.5625 275.397 16.4631 276.241 15.4574C277.093 14.4432 278.222 13.6335 279.629 13.0284C281.043 12.4148 282.731 12.108 284.691 12.108C286.089 12.108 287.316 12.2741 288.373 12.6065C289.43 12.9304 290.303 13.3864 290.994 13.9744C291.692 14.554 292.183 15.2358 292.464 16.0199C292.754 16.7955 292.822 17.6392 292.668 18.5511L290.418 32H283.822L284.282 29.2386H284.129C283.617 29.9716 283.042 30.5639 282.403 31.0156C281.772 31.4673 281.082 31.7955 280.332 32C279.59 32.2045 278.793 32.3068 277.941 32.3068ZM281.009 27.858C281.538 27.858 282.058 27.7472 282.569 27.5256C283.08 27.304 283.519 26.9844 283.886 26.5668C284.252 26.1491 284.487 25.642 284.589 25.0455L284.844 23.4091C284.657 23.4858 284.448 23.5582 284.218 23.6264C283.996 23.6861 283.762 23.7457 283.515 23.8054C283.276 23.8651 283.021 23.9205 282.748 23.9716C282.484 24.0227 282.211 24.0739 281.93 24.125C281.367 24.2102 280.894 24.3509 280.511 24.5469C280.127 24.7344 279.829 24.9688 279.616 25.25C279.403 25.5227 279.271 25.8295 279.219 26.1705C279.143 26.7074 279.266 27.125 279.59 27.4233C279.923 27.7131 280.396 27.858 281.009 27.858Z" fill="#242424"/>
</svg>
